PathFileType	3	(X/Y/Z)	D:\Vicon Database\Healthy Subjects\S0040\Jan. 30, 2020\Static Calibration.trc
DataRate	CameraRate	NumFrames	NumMarkers	Units	OrigDataRate	OrigDataStartFrame	OrigNumFrames
100.0	100.0	5	69	mm	100.0	226	300	
Frame#	Time	sternum_cluster1			sternum_cluster2			sternum_cluster3			left_asis			right_asis			left_psis			right_psis			sacrum_cluster1			sacrum_cluster2			sacrum_cluster3			left_lat_femoral_epicondyle			left_med_femoral_epicondyle			left_anterior_thigh15			left_anterior_thigh25			left_anterior_thigh50			left_lateral_thigh25			left_lateral_thigh50			left_trochanter			left_thigh_cluster1			left_thigh_cluster2			left_thigh_cluster3			left_lateral_tibial_condyle			left_medial_tibial_condyle			left_fibular_head			left_tibial_tuberosity			left_anterior_shank30			left_lateral_malleolus			left_medial_malleolus			left_shank_cluster1			left_shank_cluster2			left_shank_cluster3			left_heel			left_metatarsal2			left_metatarsal5			left_metatarsal1			left_toe_tip			left_foot_cluster1			left_foot_cluster2			left_foot_cluster3			right_lat_femoral_epicondyle			right_med_femoral_epicondyle			right_anterior_thigh15			right_anterior_thigh25			right_anterior_thigh50			right_lateral_thigh25			right_lateral_thigh50			right_trochanter			right_thigh_cluster1			right_thigh_cluster2			right_thigh_cluster3			right_lateral_tibial_condyle			right_medial_tibial_condyle			right_fibular_head			right_tibial_tuberosity			right_lateral_distal_shank			right_anterior_shank30			right_lateral_malleolus			right_medial_malleolus			right_shank_cluster1			right_shank_cluster2			right_shank_cluster3			right_heel			right_metatarsal2			right_metatarsal5			right_metatarsal1			right_toe_tip			right_foot_cluster1			right_foot_cluster2			right_foot_cluster3			
		X1	Y1	Z1	X2	Y2	Z2	X3	Y3	Z3	X4	Y4	Z4	X5	Y5	Z5	X6	Y6	Z6	X7	Y7	Z7	X8	Y8	Z8	X9	Y9	Z9	X10	Y10	Z10	X11	Y11	Z11	X12	Y12	Z12	X13	Y13	Z13	X14	Y14	Z14	X15	Y15	Z15	X16	Y16	Z16	X17	Y17	Z17	X18	Y18	Z18	X19	Y19	Z19	X20	Y20	Z20	X21	Y21	Z21	X22	Y22	Z22	X23	Y23	Z23	X24	Y24	Z24	X25	Y25	Z25	X26	Y26	Z26	X27	Y27	Z27	X28	Y28	Z28	X29	Y29	Z29	X30	Y30	Z30	X31	Y31	Z31	X32	Y32	Z32	X33	Y33	Z33	X34	Y34	Z34	X35	Y35	Z35	X36	Y36	Z36	X37	Y37	Z37	X38	Y38	Z38	X39	Y39	Z39	X40	Y40	Z40	X41	Y41	Z41	X42	Y42	Z42	X43	Y43	Z43	X44	Y44	Z44	X45	Y45	Z45	X46	Y46	Z46	X47	Y47	Z47	X48	Y48	Z48	X49	Y49	Z49	X50	Y50	Z50	X51	Y51	Z51	X52	Y52	Z52	X53	Y53	Z53	X54	Y54	Z54	X55	Y55	Z55	X56	Y56	Z56	X57	Y57	Z57	X58	Y58	Z58	X59	Y59	Z59	X60	Y60	Z60	X61	Y61	Z61	X62	Y62	Z62	X63	Y63	Z63	X64	Y64	Z64	X65	Y65	Z65	X66	Y66	Z66	X67	Y67	Z67	X68	Y68	Z68	X69	Y69	Z69	
226	2.25	786.63525	1473.5184	-232.87424	773.15625	1446.2563	-225.35316	776.42639	1449.5425	-263.21704	755.66388	1079.155	-123.36317	767.65015	1086.4448	-371.70551	924.086	1090.6821	-166.12915	931.9162	1095.3654	-282.87744	942.15424	1143.1442	-228.08278	947.46326	1118.3055	-240.47395	947.49072	1111.2444	-201.32539	873.18579	553.28223	-80.414406	859.21899	541.50452	-215.70534	767.0246	614.79828	-138.5925	735.25787	700.19489	-129.78833	721.42731	841.12146	-116.13472	847.00806	707.01398	-63.931995	818.45441	850.35986	-43.882072	818.85529	972.1911	-57.370483	823.10571	808.55341	-39.112896	829.66473	779.47504	-39.824833	792.00848	784.92242	-39.631016	878.99115	500.63269	-77.040001	872.20062	485.97473	-200.35471	879.68799	472.43454	-71.966255	822.44403	461.71838	-125.08963	820.55981	216.37482	-123.30486	859.08295	98.564674	-94.188461	841.79913	108.63518	-172.07994	816.19873	413.09824	-149.08737	809.70166	386.34225	-139.19118	822.09503	383.7562	-175.87511	926.97778	61.375889	-133.48044	708.98059	68.971313	-116.24285	735.46893	57.201145	-77.554199	713.7691	60.509186	-159.78117	657.37189	60.864529	-110.53002	772.24023	117.24737	-115.1464	747.97382	102.89396	-103.35522	741.8667	108.02087	-141.10376	854.07813	538.5224	-386.72736	848.02112	539.62134	-252.3526	763.10291	615.6366	-328.95898	734.77307	697.66711	-326.61465	722.32605	830.66742	-339.45029	834.66882	698.47742	-411.04324	821.04688	844.10431	-436.98309	824.88379	973.6604	-426.79733	833.29327	793.44672	-441.77509	823.43536	766.43463	-438.03119	862.44897	767.3811	-434.5145	865.07404	499.25302	-385.81995	851.1087	484.77826	-266.75674	872.67224	472.68558	-390.14124	816.20435	460.24689	-346.37473	875.00494	202.86285	-386.59918	828.57617	217.09953	-342.09613	870.60944	98.142624	-374.28802	855.14044	107.83224	-293.95132	823.8139	398.00494	-292.67194	827.83423	369.42795	-286.51025	805.43243	369.4675	-316.11981	940.65668	61.938725	-340.46695	721.76019	68.880531	-341.94876	756.07819	55.590069	-392.10141	731.49792	51.53854	-300.61777	670.97412	56.403038	-351.61084	779.46973	115.67013	-337.32288	754.89423	101.90119	-329.60516	755.66718	106.97913	-366.77307
227	2.26	786.6759	1473.511	-232.9157	773.18878	1446.255	-225.38306	776.4649	1449.5254	-263.23886	755.69427	1079.1449	-123.35824	767.63898	1086.4269	-371.73303	924.10645	1090.7197	-166.17218	931.95996	1095.3939	-282.84735	942.08295	1143.2087	-228.04424	947.45569	1118.2423	-240.48923	947.50543	1111.2349	-201.33658	873.14337	553.33533	-80.401016	859.1474	541.49487	-215.71803	767.01886	614.80536	-138.60419	735.24622	700.21082	-129.79427	721.42603	841.13007	-116.12134	846.98865	707.00763	-63.930176	818.46356	850.37085	-43.865479	818.84387	972.18958	-57.382366	823.16943	808.46533	-39.169243	829.63531	779.47021	-39.799847	791.98511	784.92731	-39.618809	878.96356	500.6243	-77.037651	872.17438	485.9733	-200.33734	879.65167	472.44791	-71.970589	822.41083	461.7254	-125.09241	820.53351	216.3777	-123.30559	859.06396	98.591339	-94.18235	841.84113	108.59826	-172.10432	816.34161	412.95285	-149.1312	809.68854	386.31708	-139.21437	822.09723	383.74075	-175.85928	926.96411	61.38253	-133.49121	708.96313	68.980705	-116.23952	735.40002	57.273575	-77.520958	713.76892	60.510815	-159.78252	657.36981	60.868214	-110.62372	772.22333	117.27312	-115.14266	747.94696	102.89331	-103.36288	741.85736	108.03926	-141.09761	854.09027	538.49286	-386.72058	847.99176	539.59576	-252.35214	763.08667	615.64697	-328.96106	734.71704	697.67908	-326.61642	721.98871	830.72748	-339.47031	834.64154	698.47418	-411.02884	821.08307	844.09863	-436.94485	824.84686	973.65131	-426.78632	833.2901	793.453	-441.76544	823.4386	766.43774	-438.00375	862.33459	767.32288	-434.51459	865.01373	499.2735	-385.82373	851.07458	484.78329	-266.76114	872.59064	472.68634	-390.13324	816.16742	460.2619	-346.36945	875.56775	202.81689	-386.22427	828.53058	217.11702	-342.10342	870.56677	98.169441	-374.29044	855.7215	107.24433	-294.57867	823.77966	398.0199	-292.70236	827.79651	369.44534	-286.51129	805.41223	369.47144	-316.12912	940.61444	61.927437	-340.48257	721.72583	68.887032	-341.95459	756.07233	55.595997	-392.11993	731.48242	51.531242	-300.60452	670.9657	56.393993	-351.62064	779.44092	115.67139	-337.36075	754.89032	101.88514	-329.61267	755.67383	106.98077	-366.76868
228	2.27	786.72375	1473.4825	-232.92258	773.24298	1446.2284	-225.38622	776.52411	1449.4979	-263.2547	755.72382	1079.17	-123.34207	767.64856	1086.4338	-371.70737	924.12622	1090.6392	-166.23996	931.89069	1095.3142	-282.89828	942.03815	1143.0857	-227.79898	947.46973	1118.2917	-240.56058	947.48987	1111.0282	-201.45395	873.1759	553.28943	-80.397415	859.2475	541.46674	-215.68507	767.00623	614.81506	-138.56479	735.25812	700.21033	-129.76135	721.46112	841.13171	-116.09945	847.02533	706.9823	-63.944592	818.49243	850.36353	-43.860065	818.90466	972.17004	-57.369061	823.21442	808.43396	-39.181805	829.67877	779.45135	-39.831139	792.05579	784.87048	-39.625282	878.97955	500.60654	-77.038246	872.13885	485.98172	-200.36119	879.67517	472.41852	-71.967033	822.41119	461.72363	-125.07015	820.55914	216.36197	-123.30639	859.08258	98.55423	-94.175751	841.82037	108.61237	-172.09659	816.24585	413.02704	-149.08815	809.67175	386.3269	-139.19614	822.08594	383.70401	-175.89549	926.95392	61.4202	-133.52304	708.97839	68.981903	-116.22778	735.45685	57.224636	-77.543755	713.76599	60.523174	-159.75719	657.36792	60.857433	-110.58303	772.23285	117.25757	-115.13653	747.92517	102.92769	-103.32539	741.86139	108.01084	-141.10791	853.90179	538.50989	-386.66165	847.98529	539.60626	-252.33873	763.08807	615.63293	-328.95569	734.72266	697.66241	-326.60782	722.26691	830.677	-339.43567	834.62872	698.4693	-411.02444	820.94849	844.05353	-437.0253	824.86224	973.63855	-426.83493	833.22723	793.45319	-441.76984	823.41083	766.43109	-438.0188	862.40649	767.38818	-434.64612	864.99902	499.25772	-385.84958	851.05237	484.78571	-266.73999	872.57922	472.66705	-390.1376	816.14703	460.25943	-346.35608	875.00574	202.856	-386.55069	828.51776	217.13486	-342.08087	870.57361	98.16288	-374.30951	855.19794	107.80804	-293.99036	823.80157	397.99274	-292.68335	827.80176	369.42249	-286.49942	805.38086	369.46677	-316.11893	940.75122	61.844639	-340.39877	721.7428	68.881516	-341.95386	756.06506	55.610222	-392.09399	731.48914	51.558636	-300.5921	670.95227	56.412399	-351.59616	779.45325	115.67532	-337.33679	754.90796	101.90382	-329.59552	755.65985	106.98534	-366.75394
229	2.28	786.76508	1473.4617	-232.93654	773.2796	1446.2249	-225.40762	776.58502	1449.4808	-263.28455	755.76495	1079.1633	-123.34271	767.6933	1086.4122	-371.7395	924.14471	1090.6523	-166.20195	931.8847	1095.2925	-282.8714	942.16473	1143.1996	-227.94916	947.44067	1118.1791	-240.51131	947.54535	1111.1793	-201.3233	873.14691	553.29156	-80.39563	859.12994	541.50006	-215.71672	767.02362	614.81421	-138.58539	735.25824	700.23126	-129.75952	721.4516	841.15259	-116.0871	847.02997	706.9826	-63.922272	818.49097	850.37482	-43.856022	818.89386	972.1958	-57.362209	823.1861	808.46521	-39.165825	829.66022	779.48724	-39.800762	791.9856	784.93756	-39.614323	878.95837	500.61404	-77.017105	872.08789	485.99438	-200.32991	879.63263	472.44357	-71.949051	822.38428	461.73187	-125.07939	820.54987	216.36317	-123.31207	859.07233	98.579338	-94.184578	841.82452	108.59634	-172.11801	816.32825	412.96722	-149.11136	809.68054	386.31482	-139.20293	822.08368	383.72614	-175.88467	926.92065	61.342884	-133.53531	708.9696	68.991074	-116.23981	735.46509	57.2337	-77.505272	713.75061	60.515141	-159.78452	657.37897	60.884071	-110.59321	772.2558	117.25647	-115.14447	747.94751	102.92272	-103.34601	741.86359	108.03123	-141.10269	853.92224	538.52502	-386.61111	847.95081	539.61938	-252.34195	763.03577	615.66547	-328.94711	734.69922	697.67487	-326.61835	721.94446	830.75903	-339.45288	834.61713	698.46356	-411.04117	820.99023	844.04468	-436.98529	824.79651	973.65796	-426.83868	833.18866	793.46417	-441.76349	823.42627	766.43878	-438.01196	862.39075	767.34717	-434.65121	864.9751	499.25681	-385.85382	851.04205	484.78546	-266.75101	872.52789	472.68671	-390.18069	816.1366	460.26453	-346.37073	875.02356	202.91733	-386.52582	828.54315	217.11021	-342.08331	870.58453	98.174004	-374.31949	855.13995	107.83784	-293.97781	823.76251	397.99792	-292.68622	827.79059	369.42627	-286.50583	805.38568	369.45786	-316.14227	940.73926	61.840958	-340.38956	721.73938	68.889366	-341.94464	756.07288	55.608101	-392.10104	731.47638	51.56218	-300.57715	670.96222	56.395569	-351.60626	779.43573	115.67996	-337.32556	754.91913	101.88813	-329.58017	755.67761	106.98004	-366.77029
230	2.29	786.81873	1473.4607	-232.9669	773.31281	1446.202	-225.41687	776.612	1449.4523	-263.27484	755.75958	1079.1943	-123.32645	767.66925	1086.433	-371.71317	924.17627	1090.6753	-166.13258	931.88538	1095.2562	-282.94012	942.15283	1143.0724	-227.87251	947.48547	1118.1346	-240.53807	947.57123	1111.1572	-201.34496	873.17993	553.29211	-80.408501	858.92047	541.49365	-215.77	766.98846	614.83356	-138.55548	735.25238	700.23785	-129.73116	721.4306	841.18152	-116.06046	847.03864	707.00665	-63.925461	818.50208	850.36755	-43.840942	818.89594	972.18921	-57.34861	823.23535	808.43835	-39.189362	829.68695	779.4566	-39.821991	792.0155	784.93842	-39.591171	878.95074	500.61862	-77.013763	872.10028	485.9729	-200.34331	879.60626	472.4433	-71.93158	822.37701	461.71802	-125.04973	820.53583	216.35519	-123.29949	859.07666	98.572357	-94.179138	841.81561	108.5985	-172.10516	816.21735	413.00497	-149.08784	809.62897	386.32626	-139.17735	822.03101	383.77396	-175.84123	926.94983	61.382072	-133.49229	708.97479	68.979843	-116.23644	735.47504	57.217854	-77.549706	713.76855	60.524254	-159.77722	657.37634	60.895702	-110.58566	772.2287	117.27856	-115.12893	747.97687	102.91219	-103.32902	741.87653	108.00687	-141.08917	853.94366	538.487	-386.73019	847.90686	539.60455	-252.35298	762.99915	615.65668	-328.94489	734.65955	697.67401	-326.61609	721.91437	830.75525	-339.44913	834.64282	698.41724	-411.04105	820.99921	844.05389	-436.9957	824.81134	973.65857	-426.82611	833.16394	793.42792	-441.77097	823.44543	766.44104	-438.01608	862.20667	767.34033	-434.53885	864.94769	499.22577	-385.85211	850.99707	484.77972	-266.75156	872.53955	472.64325	-390.15607	816.10498	460.25455	-346.36398	874.97455	202.84911	-386.54904	828.5274	217.09668	-342.09683	870.34271	98.152924	-374.46036	855.74487	107.24468	-294.59274	823.74445	397.99069	-292.65616	827.74884	369.42404	-286.4946	805.3595	369.46008	-316.1225	940.60181	61.895218	-340.48352	721.75378	68.875427	-341.94272	756.06793	55.597961	-392.10367	731.46173	51.567806	-300.5723	670.96588	56.393333	-351.59741	779.42273	115.66266	-337.32736	754.89673	101.87904	-329.60092	755.66425	106.98228	-366.76044
